<svg xmlns="http://www.w3.org/2000/svg">
  <symbol viewBox="0 0 22 12" id="icon-vk">
    <path d="M17.6,12c-0.3,0-0.9-0.1-1.5-0.5c-0.5-0.3-0.9-0.7-1.3-1.2c-0.3-0.3-0.9-0.9-1.1-0.9c-0.2,0.1-0.4,0.7-0.3,1.2c0,0.1,0,0.6-0.3,0.9c-0.3,0.3-0.8,0.4-0.9,0.4h-1.4c-0.7,0-3.2-0.2-5.4-2.3C2.5,7.1,0.2,2.2,0.1,2C0,1.6-0.1,1.2,0.2,0.9s0.8-0.4,1-0.4h3.1c0.1,0,0.4,0.1,0.7,0.3C5.3,1,5.4,1.3,5.5,1.4c0.7,1.5,1.5,2.8,2.6,4C8.2,5,8.3,4,8.2,3.1c0-0.4-0.1-0.8-0.2-1C7.9,2,7.7,1.9,7.5,1.9L6.9,1.4c0-0.5,0.5-0.9,0.9-1.1C8.3,0.1,9.1,0,10.1,0h0.5c0.9,0,1.2,0.1,1.6,0.1c1.2,0.3,1.2,1.3,1.1,2.5v1.6c0,0.3,0,0.8,0.1,1c0.2-0.1,0.6-0.5,1.5-1.9c0.6-0.9,1-1.9,1.1-2.1c0.1-0.3,0.4-0.7,1.2-0.7h3.4c0.7,0,1.2,0.2,1.3,0.7c0.2,0.5,0.1,1.3-1.7,3.5c-0.3,0.3-0.5,0.6-0.7,0.9c-0.5,0.4-0.9,1-0.9,1.1s0.5,0.5,0.9,0.9c1.1,0.9,1.9,1.7,2.2,2.3c0.4,0.6,0.3,1,0.2,1.3c-0.3,0.7-1.2,0.7-1.4,0.8h-2.8C17.7,12,17.6,12,17.6,12z M13.7,8.3c0.7,0,1.2,0.6,1.8,1.2c0.4,0.4,0.7,0.8,1.1,1c0.5,0.3,1,0.3,1,0.3h2.9c0.1,0,0.3-0.1,0.4-0.1c0,0,0-0.1-0.1-0.1c-0.3-0.5-1-1.3-2-2.1c-0.9-0.7-1.3-1.1-1.4-1.7c0-0.6,0.4-1.1,1.2-2.1c0.2-0.2,0.4-0.5,0.7-0.8c1.1-1.4,1.4-2,1.5-2.3h-3.9c0,0.4-0.5,1.5-1.1,2.4c-1.4,2.1-2,2.4-2.5,2.4c-0.1,0-0.3,0-0.4-0.1c-0.7-0.4-0.7-1.4-0.7-2.1V3.9V2.6c0.1-1.3,0-1.3-0.3-1.4c-0.3-0.1-0.5-0.1-1.4-0.1H10c-0.5,0-1,0-1.4,0.1l0.2,0.2c0.4,0.5,0.4,1.5,0.4,1.7c0.1,1.3,0,2.9-0.7,3.3c-0.1,0-0.2,0.1-0.4,0.1C7.5,6.5,6.8,5.8,5.6,4C5,2.9,4.5,1.8,4.5,1.8s0-0.1-0.1-0.1S4.2,1.6,4.2,1.6H1.3H1.2c0.4,0.9,2.5,5,4.8,7.2c2,1.9,4.3,2,4.7,2h1.4c0,0,0.2,0,0.2-0.1v-0.1c0-0.2,0-2,1.2-2.3C13.5,8.3,13.7,8.3,13.7,8.3z"/>
  </symbol>
  <symbol viewBox="0 0 60 60" id="academy-icon">
    <path d="M30.2 5h-.2l-19.7 2.1v36.2l19.7 11.7 19.7-11.7v-36.2l-19.5-2.1zm17 36.8l-17.2 10.2-17.2-10.2v-14.8l17.1 10.2v1.8l-11.7-7v1.8l11.8 7.1v1.9l-11.8-7v1.8l11.8 7 11.9-7.1v-7.6l5.3-3.2v15.1zm-.1-17l-4.7 2.8-2.2 1.3-10.3-6.1v1.8l8.8 5.3h-.1l-.2.1-1.3.7-7.3-4.3v1.8l5.8 3.4-1.4.9-4.3-2.6v1.8l2.9 1.7-2.9 1.7-17-10.1 17-10.2 17.2 10zm.1-1.8l-17.3-10.2-17.1 10.2v-13.6l17.2-1.8 17.2 1.8v13.6z"/>
  </symbol>
  <symbol viewBox="0 0 134 56" id="icon-cat-pro">
    <g>
      <path
        d="M123.1,5.8c1.2-1.9,2.7-3.4,4.5-4.6c1-0.7,1.6-0.7,2.2,0.6c0.8,1.9,1.5,3.9,0.9,6c-0.2,0.8-0.1,1.4,0.4,2.1
      c0.6,0.8,1.1,1.6,1.6,2.3c1.3,1.9,1.8,3.9,0.9,6.2c-0.4,1-0.4,2-0.2,3.1c0.2,1,0.2,2,0,3c-0.3,1.6-1.1,2.7-2.7,3.2
      c-1.3,0.3-2.4,0.9-3.2,2c-0.2,0.3-0.5,0.5-0.9,0.5c-1.2,0.2-4.2-2.5-4.2-3.7c0-0.2,0-0.4,0-0.6c0.1-3.6-0.1-3.9-3.4-5.4
      c-0.7-0.3-1.3-0.6-1.8-1.2c-0.6-0.8-1.4-0.7-2.3-0.4c-0.8,0.4-1.4,0.9-1.3,1.9c0.3,2.4,0.4,4.8,0.3,7.3c0,0.3,0.1,0.6,0.2,0.8
      c3.1,4.5,4.3,9.8,5.8,14.9c1.2,3.9,3.4,6,7.4,6.3c0.6,0,1.3,0.2,1.9,0.3c1.8,0.3,2.9,1.5,3.4,3.2c0.7,2.1,0.3,2.6-1.8,2.6
      c-2.2,0-4.3,0-6.5,0c-0.9,0-1.6-0.2-2.3-0.8c-1-1-2.2-1.4-3.4-2c-1.3-0.6-2.6-1.3-3.4-2.6c-1.1-1.7-2.6-3.1-4-4.5
      c-2.8-2.9-5.8-5.7-8.4-8.7c-1.9-2.2-3.2-4.6-3.2-7.6c0-0.9-0.2-1.3-1.2-0.9c-0.3,0.2-0.7,0.3-1,0.3c-2.8,0-4.2,1.7-5.2,4.2
      c-0.9,2.1-2.1,4.1-3.2,6.2C88.5,40.9,88,42.4,88,44c0,2.4,0.6,3.2,2.8,4c1.4,0.5,2.7,1,3.4,2.4c0.8,1.6,0.6,2-1.1,2.1
      c-2.3,0-4.5,0-6.8,0c-0.9,0-1.5-0.3-1.9-1.1c-0.6-1-1.2-2-1.8-3c-1-1.7-1.4-3.4-0.7-5.4c0.6-1.7,0.3-3.6,0.1-5.3
      c-0.4-2.6,0-4.9,1.7-7c0.6-0.7,0.6-1-0.4-1.2c-4.1-0.8-8-2.3-11.8-4.1c0,0-0.1,0-0.1-0.1c-3.2-1.2-3.8-1-4.7,2.3
      c-0.8,2.8-1.6,5.6-2.2,8.5c-0.7,3.2,0.1,6.2,1.1,9.2c0.4,1.2,1.6,1.1,2.5,1.4c2,0.6,3.7,1.4,4.5,3.5c0.7,1.6,0.6,1.8-1.1,1.8
      c-1.7,0-3.4-0.1-5.2,0c-1.6,0.1-2.8-0.5-4.2-1.4c-4.8-3.2-6.2-8.1-6.6-13.4c-0.2-3.3-2-5.9-4.1-8.4c-0.4-0.5-0.8-0.7-1.4-0.3
      c-2.1,1.3-4.5,2.1-6.7,3c-4.8,1.8-9,4.6-12.2,8.8c-1.2,1.5-1.9,3.2-2.2,5.1c-0.3,1.8,0.2,2.6,2,3.1c1.9,0.6,2.7,1.5,2.9,3.4
      c0.1,0.8-0.2,1.2-1,1.2c-2.7,0-5.4,0-8.1,0c-0.6,0-1-0.4-1.3-0.8c-1.3-1.6-1.9-3.5-1.9-5.5c-0.1-3.5,0.3-6.9,0.9-10.3
      c0.4-2.1,1.4-3.8,3.4-4.8c5.9-2.8,9-8.1,11.8-13.6c0.6-1.1,0.1-1.3-0.9-1.2c-2.9,0.3-5.4,1.6-7.7,3.2c-3,2.1-5.7,4.6-8.3,7.1
      c-2.9,2.7-6.2,4.6-10.3,4.9C3.1,32.5-0.3,28.4,0,21.8c0.1-2.3,0.9-4.4,2.4-6.1c1.2-1.3,2.6-2,4.5-1.5c1.5,0.4,1.9,1.2,1.3,2.7
      c-0.3,0.6-0.7,1.1-1,1.7c-0.4,0.6-0.8,1.3-1,2c-1.1,3,0.4,5.1,3.5,5.4c3.3,0.3,6-1.1,8.5-3.1c3-2.4,5.7-5.2,8-8.3
      c3.7-4.8,8.5-7.3,14.4-8.1c2.3-0.3,4.3-1.3,6.5-1.9c4.1-1.2,8.3-1.9,12.7-1.8c2,0.1,3.9-0.3,5.8-1.1c4.9-2,10-2,15.1-1
      c4,0.8,8,1.8,11.9,2.8c2.2,0.5,4.7,0.3,7-0.2c4.4-1,8.9-1.9,13.4-2c3-0.1,5.9,0.4,8.6,1.7C123.6,3.9,123.6,3.9,123.1,5.8z"/>
    </g>
  </symbol>
  <symbol viewBox="0 0 70 97" id="icon-cat-slim">
    <g>
        <path d="M54.8,0c-0.1,0-0.3,0-0.4,0c-0.7,0.4-1.1,0.9-1.4,1.6c-0.6,1.1-1,2.3-1.3,3.4c-0.2,0.8-0.7,1.2-1.5,1.3
      c-2.3,0.4-4,1.7-5.2,3.7c-0.7,1.3-1.3,2.6-1.8,3.9c-1.4,3.7-2.5,7.5-3.8,11.2C38.7,27,38.6,27,36.7,27c-2.3,0-2.1-0.4-2.1,2.1
      c0,0.8,0.2,1.2,1.1,1.2c0.3,0,0.7-0.1,0.8,0.2c0.1,0.3-0.2,0.5-0.4,0.7c-1.2,1.3-2.7,2-4.3,2.4c-1.9,0.5-3.8,0.9-5.7,1.5
      c-4.7,1.6-9.1,3.8-12.6,7.6c-2.1,2.3-3.5,5-4.7,7.8C5,59.2,3.2,68.3,1.8,77.5c-0.6,4.3-1.1,8.6-1.5,13C0.2,92.7,0,94.8,0,97
      c11.1,0,22.2,0,33.3,0c0.1-0.5-0.1-0.9-0.2-1.3c-0.7-1.8-2.1-2.7-3.8-3.1c-0.7-0.2-0.8-0.4-0.4-0.9c0.7-0.9,1.2-2,1.6-3.1
      c1.6-4.8,2.3-9.8,3.1-14.8C34.2,70,35.1,66.4,37,63c1.5-2.5,3.3-4.6,5.6-6.4c0.8-0.6,0.9-0.6,1,0.4c0.1,0.7,0.1,1.4,0.2,2.2
      c0.3,4.7,0.3,9.5-0.2,14.2c-0.3,3.7-0.5,7.4-0.2,11c0.4,4.3,1.2,8.4,2.2,12.6c4.4,0,8.9,0,13.3,0c-0.3-2.2-2.1-4-4.2-4.4
      c-1.3-0.2-2.5-0.1-3.8,0.2c-0.6,0.1-0.8,0-0.9-0.6c-0.4-5.3-0.1-10.6,1-15.8c1.3-6,2.4-12.1,3.1-18.2c0.3-2.5,1-4.8,2.3-7
      c1.2-2.1,2.2-4.3,3.4-6.5c0.9-1.7,1.1-3.4,0.4-5.2c-0.3-0.7-0.5-1.4-0.9-2.1c-1-2-2-3.9-2.9-5.9c-0.5-1-0.4-1.1,0.7-1.1
      c1.6,0,1.6,0,1.7-1.6c0-0.2,0-0.4,0-0.7c0-0.7-0.3-1.1-1-1c-0.5,0-1,0-1.5,0c-0.7,0-0.9-0.3-0.7-1c0.6-2.3,2.8-4.1,5.1-4.4
      c2.2-0.3,4.4,0,6.6,0.4c0.6,0.1,1,0,1.3-0.6c0.4-1,0.8-2,1.3-3c0.2-0.4,0.2-0.8-0.1-1.1C66.6,13.2,63.1,9.4,58.4,7
      c-0.5-0.3-0.8-0.6-0.9-1.1c-0.3-1.4-0.7-2.8-1.3-4.2C55.9,1,55.6,0.4,54.8,0z"/>
    </g>
  </symbol>
  <symbol viewBox="0 0 18 18" id="icon-close">
    <polygon points="18,1.3 16.7,0 9,7.7 1.3,0 0,1.3 7.7,9 0,16.7 1.3,18 9,10.3 16.7,18 18,16.7 10.3,9 "/>
  </symbol>
  <symbol viewBox="00 24 50" id="icon-fb">
    <path d="M7.1,19H2v-8.8H0V5.8h1.9C1.8,3.8,2.1,2.4,3,1.4C3.8,0.5,5,0.1,6.5,0H10v4.2H7.2C7.1,4.4,7,5,7,5.8h3v4.4H7.1V19z M3.1,18h2.8V9.1h2.9V6.8H5.9V6.3c0-1.4,0-2.6,0.7-3.1l0.1-0.1h2.1V1H6.5c-1.2,0.1-2,0.4-2.6,1c-0.8,0.8-1,2.3-0.8,4.2l0.1,0.6H1.1v2.3h2V18z"/>
  </symbol>
  <symbol viewBox="0 0 55.5 60" id="icon-gift">
    <path d="M52.3,12.2h-7c0.5-0.7,0.8-1.4,1.1-2.2c0.6-2,0.4-4.1-0.6-5.9c-1-1.8-2.6-3.1-4.6-3.7c-2-0.6-4.1-0.4-5.9,0.6
    c-3.6,2-6.2,6.1-7.6,9c-1.4-2.9-4-7.1-7.6-9c-3.8-2-8.5-0.6-10.5,3.1c-1.4,2.7-1.2,5.8,0.5,8.1h-7c-1.7,0-3.1,1.4-3.1,3.1v9.4
    c0,1.7,1.4,3.1,3.1,3.1H4v26.1c0,3.3,2.7,6,6,6h35.5c3.3,0,6-2.7,6-6V27.8h0.8c1.7,0,3.1-1.4,3.1-3.1v-9.4
    C55.5,13.6,54.1,12.2,52.3,12.2z M36.5,3c1.3-0.7,2.7-0.8,4.1-0.4C41.9,3,43,3.9,43.7,5.2c0.7,1.3,0.8,2.7,0.4,4.1
    c-0.4,1.2-1.1,2.2-2.2,2.9H29.4C30.5,9.6,33,5,36.5,3z M11.7,5.2C13.2,2.6,16.4,1.6,19,3c3.5,1.9,6,6.6,7.1,9.1H13.5
    C11.2,10.7,10.4,7.6,11.7,5.2z M26.5,27.8v13.7H6.4V27.8H26.5z M6.4,53.9v-10h20.2v13.7H10C8,57.6,6.4,55.9,6.4,53.9z M45.5,57.6
    H28.9V43.9h20.2v10C49.1,55.9,47.5,57.6,45.5,57.6z M49.1,41.5H28.9V27.8h20.2V41.5z M53.1,24.7c0,0.4-0.3,0.7-0.7,0.7h-2
    c0,0,0,0,0,0s0,0,0,0H27.7c0,0,0,0,0,0s0,0,0,0H5.2c0,0,0,0,0,0s0,0,0,0h-2c-0.4,0-0.7-0.3-0.7-0.7v-9.4c0-0.4,0.3-0.7,0.7-0.7h49.2
    c0.4,0,0.7,0.3,0.7,0.7V24.7z"/>
  </symbol>
  <symbol viewBox="0 0 16.1 16" id="icon-insta">
    <path class="st0" d="M11.8,1C13.6,1,15,2.4,15,4.2v7.7c0,1.7-1.4,3.1-3.1,3.1H4.2C2.4,15,1,13.6,1,11.8V4.2C1,2.4,2.4,1,4.2,1H11.8M11.8,0H4.2C1.9,0,0,1.9,0,4.2v7.7C0,14.1,1.9,16,4.2,16h7.7c2.3,0,4.2-1.9,4.2-4.2V4.2C16,1.9,14.1,0,11.8,0z"/>
    <path class="st0" d="M8,4.9c1.7,0,3.1,1.4,3.1,3.1S9.7,11.1,8,11.1S4.9,9.7,4.9,8S6.3,4.9,8,4.9 M8,3.9C5.7,3.9,3.9,5.7,3.9,8s1.8,4.1,4.1,4.1s4.1-1.8,4.1-4.1S10.3,3.9,8,3.9z"/>
    <circle class="st0" cx="12.3" cy="3.7" r="0.9"/>
  </symbol>
  <symbol viewBox="0 0 17 13" id="icon-mail">
    <path d="M15.6,11.6H1.4V5.8H0V13h17V5.8h-1.4V11.6z M0,0v2.3l8.5,7.1L17,2.3V0H0z M15.6,1.6L8.5,7.5L1.4,1.6V1.4h14.2L15.6,1.6z"/>
  </symbol>
  <symbol viewBox="0 0 24 18" id="icon-mobile-menu">
    <rect y="16" width="24" height="2"/>
    <rect y="8" width="24" height="2"/>
    <rect width="24" height="2"/>
  </symbol>
  <symbol viewBox="0 0 20 20" id="icon-phone">
    <path d="M17.9,9.4H9.4v1.2h8.5l-2.1,2.1l0.9,0.9l3.1-3.1c0.2-0.2,0.2-0.6,0-0.9l-3.1-3.1l-0.9,0.9L17.9,9.4z"/>
    <path d="M8.1,19.4v-6.2c0-0.3-0.3-0.6-0.6-0.6H4.4l0,0H3.1l0,0c0,0.7,0.6,1.2,1.2,1.2h2.5v5H3.1c-1,0.1-1.8-0.7-1.9-1.7
  c0-0.1,0-0.1,0-0.2V3.1c0-1,0.8-1.8,1.7-1.8c0.1,0,0.1,0,0.2,0h3.7v5H4.4c-0.7,0-1.2,0.6-1.2,1.2h4.4c0.3,0,0.6-0.3,0.6-0.6V0.6
  C8.1,0.3,7.8,0,7.5,0H3.1C1.5-0.1,0.1,1.2,0,2.9C0,3,0,3.1,0,3.1v13.7c-0.1,1.7,1.2,3.1,2.9,3.1c0.1,0,0.2,0,0.2,0h4.4
  C7.8,20,8.1,19.7,8.1,19.4z"/>
  </symbol>
  <symbol viewBox="0 0 60 60" id="icon-plus">
    <polygon class="st0" points="60,29.5 30.5,29.5 30.5,0 29.5,0 29.5,29.5 0,29.5 0,30.5 29.5,30.5 29.5,60 30.5,60 30.5,30.5 60,30.5 "/>
  </symbol>
  <symbol viewBox="0 0 30 30" id="icon-plus-mobile">
    <polygon class="st0" points="30,14 16,14 16,0 14,0 14,14 0,14 0,16 14,16 14,30 16,30 16,16 30,16 "/>
  </symbol>
  <symbol viewBox="0 0 24.2 11" id="icon-arrow">
    <polygon points="17.6,0 24.2,5.5 17.6,11 17.6,6.6 0,6.6 0,4.4 17.6,4.4 "/>
  </symbol>
  <symbol viewBox="0 0 32 11" id="icon-arrow-long">
    <polygon points="25.4,0 32,5.5 25.4,11 25.4,6.6 0,6.6 0,4.4 25.4,4.4 "/>
  </symbol>
  <symbol viewBox="0 0 21.1 15.5" id="icon-tick">
    <polygon points="20.1,0 7.7,13.3 1,6.1 0,7.2 7.6,15.4 7.7,15.5 21,1.2 21.1,1.1 "/>
  </symbol>
  <symbol viewBox="0 0 202 60" id="logo-desktop">
    <g clip-path="url(#clip0)">
      <path d="M59.8801 24C58.1562 19.8695 55.3799 16.263 51.8279 13.5398C48.276 10.8166 44.0723 9.07178 39.6359 8.47931C35.1996 7.88684 30.6854 8.46738 26.5433 10.1631C22.4012 11.8588 18.7758 14.6104 16.0284 18.1437C13.281 21.677 11.5076 25.8687 10.8849 30.3009C10.2622 34.7332 10.812 39.2512 12.4794 43.4048C14.1468 47.5583 16.8737 51.2024 20.3882 53.9738C23.9027 56.7452 28.0822 58.5471 32.5101 59.2C31.9301 57.11 31.3401 54.8 30.8201 52.35C32.3328 53.3313 33.925 54.1843 35.5801 54.9C35.5801 54.9 35.7001 57.06 35.8601 59.47C37.6483 59.5008 39.4348 59.3433 41.1901 59C41.1447 58.7487 41.1447 58.4913 41.1901 58.24C41.4801 56.37 42.2801 53 42.4401 50.83C43.5933 49.7513 44.5717 48.4996 45.3401 47.12L45.2801 47.56C44.7301 51.82 43.5801 56.37 42.8801 57.63C42.6534 58.0471 42.3745 58.4335 42.0501 58.78C45.6699 57.9308 49.0617 56.3046 51.9903 54.014C54.919 51.7233 57.3145 48.8232 59.0106 45.5146C60.7068 42.2059 61.6631 38.568 61.8132 34.853C61.9634 31.1379 61.3037 27.4347 59.8801 24ZM58.4101 27.79C57.9701 28.22 57.0601 28.51 56.9101 27.21C56.7601 25.91 56.7201 25 56.7201 25C56.7201 25 54.7901 21.57 54.0701 21.53C53.3501 21.49 48.2401 25 46.8901 26.53C45.7201 27.82 45.4901 27.73 45.4901 30C45.4901 31.71 45.7101 38.17 45.5901 43.11L37.4401 45.28C34.8784 46.0152 32.2733 46.5896 29.6401 47L28.6401 41.17H28.5001L25.9301 28C25.9301 28 22.1201 26.56 20.7201 26.17C20.0627 25.8824 19.3368 25.7889 18.628 25.9005C17.9192 26.0122 17.2572 26.3243 16.7201 26.8C16.1721 27.2798 15.7339 27.872 15.4354 28.5364C15.1368 29.2008 14.985 29.9217 14.9901 30.65C15.2014 31.1148 15.3624 31.6009 15.4701 32.1C15.5201 32.58 14.2701 32.53 13.4701 32.53C12.6701 32.53 12.5501 31.09 13.1801 29.4C13.6716 28.1005 14.2808 26.8486 15.0001 25.66C15.5411 24.5982 16.2389 23.624 17.0701 22.77C17.0701 22.77 17.2101 22.43 18.3201 22.53C19.4301 22.63 25.6001 22.96 25.6001 22.96L25.6501 20.69C32.3564 19.764 39.1202 19.3162 45.8901 19.35C45.8901 19.96 45.8901 20.57 45.8901 21.18C48.4543 20.0098 51.2155 19.3314 54.0301 19.18C54.1807 19.1762 54.3298 19.2098 54.4642 19.2779C54.5986 19.346 54.714 19.4463 54.8001 19.57C55.1401 20 57.2101 22.57 57.4501 22.94C58.1223 23.9007 58.7335 24.9027 59.2801 25.94C59.0927 26.5968 58.7988 27.2184 58.4101 27.78V27.79Z" fill="#FDC305"/>
      <path d="M56.46 21.67C56.93 22.27 57.34 22.8 57.46 22.96C58.1322 23.9207 58.7434 24.9227 59.29 25.96C59.0997 26.5953 58.8094 27.1961 58.43 27.74C57.99 28.17 57.08 28.46 56.93 27.16C56.78 25.86 56.72 25 56.72 25C56.72 25 54.79 21.57 54.07 21.53C53.35 21.49 48.24 25 46.89 26.53C45.72 27.82 45.49 27.73 45.49 30C45.49 31.5 45.66 36.65 45.62 41.23C47.43 41.43 50.09 41.93 50.89 43.11C50.89 43.11 50.6 35.93 58.7 39.69C58.7 39.69 58.98 29.9 70.16 32.41C66.3594 27.9478 61.7004 24.2955 56.46 21.67Z" fill="#F06351"/>
      <path d="M45.93 19.35C45.9707 13.8087 45.5021 8.27548 44.53 2.82C44.53 2.82 44.38 1.52 43.66 2.58C43.0659 3.84722 42.6616 5.195 42.46 6.58C38.1852 6.30571 33.8943 6.41951 29.64 6.92C28.82 4.17 27.42 2.92 26.75 3.25C26.08 3.58 26 6.53 26 6.53L25.67 20.69C32.383 19.7631 39.1535 19.3153 45.93 19.35Z" fill="#F06351"/>
      <path d="M45.35 47.12C45.48 46.05 45.55 44.63 45.59 43.06L37.44 45.23C34.8795 45.982 32.2744 46.5732 29.64 47L30.75 52C30.75 52.11 30.75 52.22 30.82 52.33C32.3328 53.3113 33.925 54.1643 35.58 54.88C37.9987 53.7238 40.3023 52.341 42.46 50.75V50.81C43.6081 49.7366 44.583 48.4918 45.35 47.12Z" fill="#E55645"/>
      <path d="M32 16.22C31.95 16.12 33 16.9 33.41 17.14C33.82 17.38 34.02 17.56 34.02 17.73C34.02 17.9 33.76 18.07 33.4 18.07C33.04 18.07 32.48 17.95 32.4 17.81C32.32 17.67 33 17.81 33.34 17.81H33.63C33.0144 17.3596 32.4656 16.8243 32 16.22Z" fill="black"/>
      <path d="M39.5 16.33C39.5 16.33 38.5 17.61 38.41 17.67C38.32 17.73 38.24 18.01 38.6 17.96C39.0133 17.8983 39.4212 17.8047 39.82 17.68C39.93 17.62 39.89 17.48 39.7 17.5C39.51 17.52 39.02 17.55 38.7 17.61L39.55 16.34C39.55 16.34 39.58 16.22 39.5 16.33Z" fill="black"/>
      <path d="M36.36 22.44C36.8236 22.2358 37.2067 21.8843 37.45 21.44C37.73 20.78 37.45 20.53 37.01 20.44C36.4047 20.3296 35.78 20.4509 35.26 20.78C34.87 21.15 34.92 21.51 35.26 21.78C35.5978 22.0449 35.9673 22.2666 36.36 22.44Z" fill="black"/>
      <path d="M36 23.7C35.8852 23.9268 35.7292 24.1302 35.54 24.3C35.2552 24.5291 34.9051 24.6622 34.54 24.68C33.9894 24.734 33.4389 24.5768 33 24.24C32.7984 24.1221 32.619 23.9698 32.47 23.79C32.3699 23.6811 32.247 23.5957 32.11 23.54C32.11 23.54 32.86 27.65 34.68 28.31C36.5 28.97 36.84 27.55 36.89 27.17C36.9509 26.0319 36.665 24.9021 36.07 23.93C36.07 23.63 36.05 23.83 36 23.7Z" fill="#F06351"/>
      <path d="M34.3001 24.84C33.8321 24.7727 33.3826 24.6113 32.9787 24.3656C32.5748 24.1198 32.2249 23.7947 31.9501 23.41C31.9255 23.3825 31.9119 23.3469 31.9119 23.31C31.9119 23.2731 31.9255 23.2375 31.9501 23.21C31.9631 23.1967 31.9787 23.1861 31.9958 23.1789C32.013 23.1717 32.0314 23.168 32.0501 23.168C32.0687 23.168 32.0871 23.1717 32.1043 23.1789C32.1215 23.1861 32.137 23.1967 32.1501 23.21C32.3975 23.5572 32.7115 23.8517 33.0737 24.0766C33.4359 24.3015 33.8391 24.4522 34.2601 24.52C34.593 24.495 34.9153 24.3913 35.2005 24.2174C35.4856 24.0436 35.7253 23.8046 35.9001 23.52L36.0401 23.33L36.1401 23.55C36.1401 23.55 36.5201 24.31 37.1401 24.35C37.7601 24.39 38.2001 23.93 38.7701 23.06C38.7913 23.0282 38.8243 23.0061 38.8618 22.9986C38.8993 22.9911 38.9382 22.9988 38.9701 23.02C39.0019 23.0412 39.024 23.0742 39.0315 23.1117C39.039 23.1492 39.0313 23.1882 39.0101 23.22C38.3434 24.2 37.7134 24.67 37.1201 24.63C36.8907 24.5996 36.6711 24.5183 36.4773 24.392C36.2835 24.2656 36.1204 24.0975 36.0001 23.9C35.8044 24.1732 35.5503 24.3994 35.2562 24.562C34.9621 24.7246 34.6355 24.8196 34.3001 24.84Z" fill="black"/>
      <path d="M36.26 38.3C38.3311 38.3 40.01 36.6211 40.01 34.55C40.01 32.4789 38.3311 30.8 36.26 30.8C34.1889 30.8 32.51 32.4789 32.51 34.55C32.51 36.6211 34.1889 38.3 36.26 38.3Z" fill="#FDC305"/>
      <path d="M41.23 31.5L38.1 32.81L39.25 27.18L31.75 36.94L34.88 35.63L33.73 41.27L41.23 31.5ZM33.84 35.33L38 29.92L37.19 33.92L39.19 33.1L35 38.52L35.81 34.52L33.84 35.33Z" fill="#111111"/>
      <path d="M32.4399 33.86C33.0585 33.86 33.5599 33.3586 33.5599 32.74C33.5599 32.1214 33.0585 31.62 32.4399 31.62C31.8214 31.62 31.3199 32.1214 31.3199 32.74C31.3199 33.3586 31.8214 33.86 32.4399 33.86Z" fill="#111111"/>
      <path d="M38.96 37.92C39.3963 37.92 39.75 37.5663 39.75 37.13C39.75 36.6937 39.3963 36.34 38.96 36.34C38.5237 36.34 38.17 36.6937 38.17 37.13C38.17 37.5663 38.5237 37.92 38.96 37.92Z" fill="#111111"/>
      <path d="M39.9199 35.75C40.1132 35.75 40.2699 35.5933 40.2699 35.4C40.2699 35.2067 40.1132 35.05 39.9199 35.05C39.7266 35.05 39.5699 35.2067 39.5699 35.4C39.5699 35.5933 39.7266 35.75 39.9199 35.75Z" fill="#111111"/>
      <path d="M45.88 21.16C44.0749 22.7873 42.3748 24.5274 40.79 26.37C39.2114 28.1993 37.43 29.8432 35.48 31.27C35.26 30.74 33.85 29.75 33.85 29.75C33.85 29.75 30.71 27.6 28.65 25.91C27.5364 24.9825 26.4873 23.9802 25.51 22.91L23.51 22.8C26.397 27.0172 30.6266 30.1329 35.51 31.64C36.37 31.5 38.79 29.77 40.6 28.36C42.7414 26.5389 44.7467 24.5636 46.6 22.45C47.0981 21.858 47.4844 21.1803 47.74 20.45C46.6 20.83 45.88 21.16 45.88 21.16Z" fill="#F06351"/>
      <path d="M65.22 3.5L56.76 12.94L55.54 10.95L63.69 0L65.22 3.5Z" fill="#FDC305"/>
      <path d="M62.65 17.26L68.19 13.15L67.41 9.41L62.01 14.22L62.65 17.26Z" fill="#FDC305"/>
      <path d="M59.92 49.37L66.05 52.55L69.06 50.21L62.37 47.46L59.92 49.37Z" fill="#FDC305"/>
      <path d="M1.94995 5.97L5.01995 2.61L14.31 11.61L13.09 13.89L1.94995 5.97Z" fill="#FDC305"/>
      <path d="M7.38003 16.28L2.68003 13.15L0.280029 17.02L5.43003 19.42L7.38003 16.28Z" fill="#FDC305"/>
      <path d="M13.91 52.55L9.35999 55.9L12.16 59.48L16.18 55.46L13.91 52.55Z" fill="#FDC305"/>
      <path d="M25.93 28C25.93 28 22.12 26.56 20.72 26.17C20.0626 25.8824 19.3367 25.7889 18.6279 25.9005C17.9192 26.0122 17.2571 26.3243 16.72 26.8C16.172 27.2798 15.7338 27.8721 15.4353 28.5364C15.1368 29.2008 14.9849 29.9217 14.99 30.65C15.2014 31.1148 15.3623 31.6009 15.47 32.1C15.52 32.58 14.27 32.53 13.47 32.53C12.67 32.53 12.55 31.09 13.18 29.4C13.6715 28.1005 14.2807 26.8486 15 25.66C9.55 28.5 0 35.06 0 35.06C2.73169 34.8953 5.47264 34.9756 8.19 35.3C13.44 35.83 13.19 39.97 13.19 39.97C15.0366 39.4609 16.9184 39.0899 18.82 38.86C20.94 38.72 21.09 40.98 21.09 40.98L21.62 44.84C22.4248 43.9693 23.3123 43.1789 24.27 42.48C25.5045 41.4918 27.0763 41.0253 28.65 41.18L25.93 28Z" fill="#F06351"/>
      <path d="M85.6599 42C84.6298 40.4735 84.1372 38.6475 84.2599 36.81V29.31C84.13 27.459 84.6151 25.6169 85.6399 24.07C86.5666 22.8767 88.1499 22.2833 90.3899 22.29C92.6299 22.2967 94.1466 22.82 94.9399 23.86C95.9073 25.1488 96.3793 26.7423 96.2699 28.35V30.11H92.1299V28.2C92.1244 27.6974 92.0809 27.196 91.9999 26.7C91.9499 26.3409 91.785 26.0077 91.5299 25.75C91.3725 25.615 91.1897 25.5127 90.9922 25.4492C90.7947 25.3856 90.5866 25.3621 90.3799 25.38C90.0831 25.3357 89.7799 25.3839 89.5115 25.5181C89.2431 25.6523 89.0226 25.866 88.8799 26.13C88.617 26.8323 88.5013 27.5811 88.5399 28.33V37.85C88.4943 38.6038 88.628 39.3578 88.9299 40.05C89.0742 40.2997 89.2883 40.5019 89.5459 40.6315C89.8035 40.7612 90.0934 40.8128 90.3799 40.78C90.6615 40.8198 90.9484 40.7697 91.1998 40.6368C91.4512 40.5039 91.6542 40.2951 91.7799 40.04C92.0218 39.3364 92.127 38.5931 92.0899 37.85V35.85H96.2299V37.58C96.3518 39.2114 95.9183 40.8361 94.9999 42.19C94.1199 43.29 92.5999 43.83 90.4399 43.83C88.2799 43.83 86.5899 43.23 85.6599 42Z" fill="#111111"/>
      <path d="M101.91 22.58H106.65L110.65 43.58H106.71L106 38.94H102.68L101.88 43.55H97.88L101.91 22.58ZM105.56 36.3L104.3 27.86L103.05 36.3H105.56Z" fill="#111111"/>
      <path d="M113.72 25.74H110.48V22.58H121.2V25.74H118V43.55H113.71L113.72 25.74Z" fill="#111111"/>
      <path d="M129.61 22.58H137.74V24.76H132.54V31.69H136.76V33.76H132.54V41.45H137.79V43.55H129.61V22.58Z" fill="#444444"/>
      <path d="M140.15 22.58H142.15L148.15 36.51V22.58H150.59V43.58H148.72L142.72 29.26V43.55H140.24L140.15 22.58Z" fill="#444444"/>
      <path d="M153.82 22.58H161.94V24.76H156.74V31.69H161V33.76H156.78V41.45H162V43.55H153.82V22.58Z" fill="#444444"/>
      <path d="M164.35 22.58H168.57C170.233 22.4462 171.889 22.9107 173.24 23.89C174.24 24.76 174.73 26.18 174.73 28.15C174.73 30.8167 173.867 32.4467 172.14 33.04L175.14 43.55H172.3L169.55 33.71H167.28V43.55H164.35V22.58ZM168.35 31.58C169.313 31.6732 170.277 31.402 171.05 30.82C171.364 30.4481 171.599 30.0158 171.74 29.5498C171.881 29.0837 171.925 28.5938 171.87 28.11C171.89 27.4316 171.792 26.7548 171.58 26.11C171.494 25.8722 171.361 25.6542 171.189 25.4687C171.018 25.2831 170.81 25.134 170.58 25.03C169.931 24.7637 169.231 24.6441 168.53 24.68H167.24V31.62L168.35 31.58Z" fill="#444444"/>
      <path d="M178.67 42C177.714 40.3866 177.271 38.5208 177.4 36.65V29.65C177.366 28.2992 177.534 26.9508 177.9 25.65C178.189 24.6721 178.803 23.8219 179.64 23.24C180.651 22.6307 181.821 22.3382 183 22.4C183.762 22.3275 184.532 22.4224 185.254 22.678C185.976 22.9336 186.633 23.3439 187.18 23.88C188.139 25.224 188.593 26.864 188.46 28.51V29.29H185.71V28.64C185.729 27.8626 185.668 27.0852 185.53 26.32C185.439 25.8296 185.168 25.3909 184.77 25.09C184.251 24.7836 183.652 24.6408 183.05 24.68C182.397 24.6241 181.748 24.825 181.24 25.24C180.825 25.6335 180.554 26.1545 180.47 26.72C180.343 27.5437 180.286 28.3767 180.3 29.21V37C180.221 38.1837 180.423 39.3695 180.89 40.46C181.161 40.7954 181.506 41.0643 181.897 41.2461C182.288 41.428 182.716 41.5181 183.147 41.5094C183.578 41.5007 184.002 41.3935 184.386 41.196C184.769 40.9986 185.102 40.716 185.36 40.37C185.842 39.2166 186.051 37.9674 185.97 36.72V35.24H183.31V33.17H188.61V43.55H186.8L186.51 41.14C186.281 41.9407 185.788 42.6403 185.11 43.125C184.433 43.6098 183.612 43.8512 182.78 43.81C181.998 43.879 181.211 43.7492 180.493 43.4328C179.774 43.1163 179.147 42.6235 178.67 42Z" fill="#444444"/>
      <path d="M194.69 36.15L190.16 22.58H192.88L196.09 32.7L199.25 22.58H202L197.5 36.15V43.55H194.7L194.69 36.15Z" fill="#444444"/>
    </g>
    <defs>
      <clipPath id="clip0">
        <rect width="201.99" height="59.48" fill="white"/>
      </clipPath>
    </defs>
  </symbol>
  <symbol viewBox="0 0 127.8 23.4" id="logo-footer">
    <style type="text/css">
      .st0 {
        fill: #111111;
      }
    </style>
    <g>
      <path
        class="st0"
        d="M1.6,21.5c-1-1.3-1.6-3.2-1.6-5.6V7.6c0-2.5,0.5-4.4,1.5-5.7C2.6,0.6,4.3,0,6.8,0c2.4,0,4.1,0.6,5.1,1.7
      c1,1.1,1.5,2.8,1.5,4.9v2H8.5V6.3c0-0.9-0.1-1.6-0.3-2S7.6,3.5,6.8,3.5c-0.7,0-1.2,0.2-1.4,0.7S5.1,5.5,5.1,6.4v10.7
      c0,0.9,0.1,1.6,0.4,2.1c0.2,0.5,0.7,0.7,1.4,0.7c0.7,0,1.1-0.2,1.3-0.7c0.2-0.5,0.3-1.2,0.3-2.1v-2.4h4.9v2c0,2.1-0.5,3.8-1.5,5
      c-1,1.2-2.7,1.8-5.1,1.8C4.4,23.4,2.6,22.8,1.6,21.5z"/>
      <path class="st0" d="M19.3,0.3h5.7l4.2,22.8h-4.6l-0.8-4.8h-3.3l-0.8,4.8H15L19.3,0.3z M23.4,15.3l-1.2-8.9L21,15.3H23.4z"/>
      <path class="st0" d="M32.7,4.1h-3.4V0.3h11.9v3.7h-3.4v19.1h-5.1V4.1z"/>
      <path class="st0" d="M50.3,0.3h8.8v2.4h-5.7v7.5h4.6v2.3h-4.6v8.4h5.7v2.3h-8.9V0.3z"/>
      <path class="st0" d="M61.7,0.3h2.2l6.5,15.1V0.3h2.6v22.8h-2L64.4,7.5v15.6h-2.7V0.3z"/>
      <path class="st0" d="M76,0.3h8.8v2.4h-5.7v7.5h4.6v2.3h-4.6v8.4h5.7v2.3H76V0.3z"/>
      <path
        class="st0"
        d="M87.4,0.3H92c2.3,0,4,0.5,5.1,1.4c1.1,0.9,1.6,2.5,1.6,4.6c0,2.9-0.9,4.7-2.8,5.3l3.2,11.4H96l-3-10.7h-2.5
      v10.7h-3.2V0.3z M91.8,10.1c1.4,0,2.3-0.3,2.9-0.8c0.6-0.5,0.9-1.5,0.9-3c0-0.9-0.1-1.7-0.3-2.2c-0.2-0.5-0.6-0.9-1.1-1.2
      c-0.5-0.3-1.3-0.4-2.2-0.4h-1.4v7.5H91.8z"/>
      <path
        class="st0"
        d="M102.7,21.4c-0.9-1.3-1.4-3.2-1.4-5.8V8c0-1.8,0.2-3.2,0.5-4.3c0.4-1.1,1-2,1.9-2.6s2.1-0.9,3.7-0.9
      c2.1,0,3.6,0.5,4.5,1.6s1.4,2.7,1.4,5v0.8h-3V6.9c0-1.1-0.1-1.9-0.2-2.5c-0.1-0.6-0.4-1-0.8-1.3c-0.4-0.3-1-0.5-1.9-0.5
      c-0.9,0-1.5,0.2-2,0.6s-0.7,0.9-0.8,1.6s-0.2,1.6-0.2,2.7V16c0,1.7,0.2,3,0.6,3.8c0.4,0.8,1.2,1.1,2.4,1.1c1.2,0,2-0.4,2.4-1.2
      c0.4-0.8,0.7-2.1,0.7-4v-1.6h-2.9v-2.3h5.8v11.3h-2l-0.3-2.6c-0.7,1.9-2.1,2.9-4.1,2.9C105.1,23.4,103.6,22.7,102.7,21.4z"/>
      <path class="st0" d="M119.8,15.1l-4.9-14.7h3l3.5,11l3.4-11h3l-4.9,14.7v8h-3V15.1z"/>
    </g>
  </symbol>
  <symbol viewBox="0 0 190.4 37.6" id="logo-mobile">
    <g clip-path="url(#clip0)">
<path d="M6.07 20.72V18.46C12.7536 17.5423 19.4937 17.0979 26.24 17.13C26.24 17.73 26.24 18.34 26.18 18.95C28.0976 18.099 30.1128 17.4877 32.18 17.13C30.8625 13.722 28.4618 10.8412 25.3471 8.93087C22.2324 7.02052 18.5764 6.1864 14.9414 6.55683C11.3064 6.92727 7.89379 8.48172 5.22852 10.9811C2.56325 13.4804 0.792969 16.7863 0.190001 20.39L6.07 20.72Z" fill="#FDC305"/>
<path d="M27.24 24.23C26.08 25.51 25.85 25.43 25.85 27.68C25.85 28.59 25.85 32.58 25.85 36.86C28.1425 35.346 30.0245 33.2879 31.328 30.8694C32.6315 28.4509 33.3158 25.7474 33.32 23C33.3068 21.9591 33.1997 20.9216 33 19.9C30.9282 21.1295 28.9967 22.5814 27.24 24.23Z" fill="#FDC305"/>
<path d="M6.36 25.72C6.36 25.72 2.57 24.28 1.17 23.89C0.787067 23.7693 0.396097 23.6757 0 23.61C0.108395 26.496 0.965588 29.3041 2.48739 31.7586C4.00919 34.2131 6.14326 36.2296 8.68 37.61L6.36 25.72Z" fill="#FDC305"/>
<path d="M26.29 17.12C26.3307 11.5986 25.862 6.08528 24.89 0.65C24.89 0.65 24.75 -0.64 24 0.41C23.4109 1.65814 23.0067 2.98539 22.8 4.35C18.5418 4.07577 14.2675 4.18957 10.03 4.69C9.24 2 7.85 0.75 7.18 1C6.51 1.25 6.46 4.31 6.46 4.31L6.13 18.41C12.8113 17.506 19.548 17.0749 26.29 17.12Z" fill="#F06351"/>
<path d="M12.41 14C12.41 13.91 13.41 14.68 13.82 14.92C14.23 15.16 14.43 15.34 14.43 15.51C14.43 15.68 14.16 15.85 13.8 15.85C13.44 15.85 12.89 15.73 12.8 15.58H13.74H14.03C13.4207 15.1294 12.8757 14.5978 12.41 14Z" fill="black"/>
<path d="M19.89 14.11L18.8 15.44C18.8 15.5 18.63 15.79 18.98 15.74C19.3942 15.6783 19.8023 15.5812 20.2 15.45C20.31 15.45 20.27 15.26 20.09 15.28C19.91 15.3 19.4 15.33 19.09 15.39L19.93 14.13C19.93 14.13 20 14 19.89 14.11Z" fill="black"/>
<path d="M16.75 20.2C17.2135 19.9958 17.5967 19.6443 17.84 19.2C18.12 18.55 17.84 18.29 17.4 18.2C16.7979 18.0902 16.1765 18.2116 15.66 18.54C15.27 18.9 15.32 19.26 15.61 19.54C15.9613 19.8062 16.3442 20.0279 16.75 20.2Z" fill="black"/>
<path d="M16.35 21.45C16.2379 21.6785 16.0816 21.8825 15.89 22.05C15.6052 22.2791 15.2551 22.4122 14.89 22.43C14.3638 22.472 13.8406 22.3189 13.42 22C13.2222 21.8808 13.0436 21.7324 12.89 21.56C12.7895 21.4491 12.6669 21.3605 12.53 21.3C12.53 21.3 13.28 25.4 15.1 26.05C16.92 26.7 17.24 25.3 17.3 24.92C17.3601 23.7851 17.0742 22.6588 16.48 21.69C16.46 21.38 16.45 21.58 16.35 21.45Z" fill="#F06351"/>
<path d="M14.71 22.59C14.2453 22.5247 13.7989 22.3651 13.3982 22.1209C12.9975 21.8767 12.651 21.5531 12.38 21.17C12.3667 21.157 12.3561 21.1414 12.3489 21.1242C12.3417 21.1071 12.338 21.0886 12.338 21.07C12.338 21.0514 12.3417 21.0329 12.3489 21.0158C12.3561 20.9986 12.3667 20.983 12.38 20.97C12.393 20.9567 12.4086 20.9461 12.4258 20.9389C12.4429 20.9317 12.4614 20.928 12.48 20.928C12.4986 20.928 12.5171 20.9317 12.5342 20.9389C12.5514 20.9461 12.567 20.9567 12.58 20.97C13.0848 21.6642 13.843 22.1313 14.69 22.27C15.0217 22.245 15.3426 22.1413 15.6261 21.9674C15.9096 21.7934 16.1475 21.5544 16.32 21.27L16.46 21.08L16.56 21.29C16.56 21.29 16.93 22.05 17.56 22.09C18.19 22.13 18.61 21.68 19.17 20.81C19.183 20.7967 19.1986 20.7861 19.2158 20.7789C19.2329 20.7717 19.2514 20.768 19.27 20.768C19.2886 20.768 19.3071 20.7717 19.3242 20.7789C19.3414 20.7861 19.357 20.7967 19.37 20.81C19.4023 20.8306 19.4255 20.8629 19.4348 20.9C19.4441 20.9372 19.4388 20.9766 19.42 21.01C18.78 22.01 18.15 22.45 17.54 22.41C17.308 22.3763 17.0867 22.2904 16.8927 22.1587C16.6987 22.0271 16.5371 21.8531 16.42 21.65C16.2233 21.9245 15.9676 22.1514 15.6717 22.3141C15.3758 22.4767 15.0471 22.571 14.71 22.59Z" fill="black"/>
<path d="M26.24 18.92C24.4445 20.5437 22.7512 22.277 21.17 24.11C19.5986 25.9361 17.8238 27.5768 15.88 29C15.66 28.47 14.26 27.49 14.26 27.49C14.26 27.49 11.13 25.35 9.08 23.67C7.97414 22.7373 6.9287 21.7353 5.95 20.67L3.95 20.56C6.84018 24.7655 11.0702 27.8676 15.95 29.36C16.81 29.22 19.22 27.5 21.02 26.1C23.1389 24.2819 25.124 22.3134 26.96 20.21C27.4625 19.621 27.8493 18.9425 28.1 18.21C27 18.6 26.24 18.92 26.24 18.92Z" fill="#F06351"/>
</g>
<g clip-path="url(#clip1)">
<path d="M91.2645 29.5385C90.3696 28.2762 89.9253 26.7627 90 25.2308V18.8462C89.8916 17.2977 90.3081 15.7575 91.1855 14.4615C92.0548 13.4615 93.3983 13 95.374 13C97.3498 13 98.6143 13.4615 99.4045 14.3077C100.263 15.3794 100.685 16.7214 100.59 18.0769V19.6154H96.7175V17.8462C96.7488 17.3229 96.6681 16.799 96.4804 16.3077C96.3802 16.1094 96.2212 15.9448 96.024 15.8351C95.8269 15.7255 95.6005 15.6757 95.374 15.6923C94.8208 15.6923 94.4257 15.8462 94.2676 16.2308C94.0888 16.7773 94.0086 17.3499 94.0305 17.9231V26.1538C93.9888 26.71 94.0978 27.267 94.3466 27.7692C94.5047 28.1538 94.8999 28.3077 95.4531 28.3077C96.0063 28.3077 96.3224 28.1538 96.4804 27.7692C96.6601 27.2494 96.7405 26.7019 96.7175 26.1538V24.3077H100.59V25.8462C100.67 27.2238 100.251 28.5852 99.4045 29.6923C98.6143 30.6154 97.2707 31.0769 95.374 31.0769C93.4773 31 92.0548 30.5385 91.2645 29.5385Z" fill="#111111"/>
<path d="M105.253 13.2308H109.757L113.077 30.7692H109.441L108.809 27.0769H106.201L105.569 30.7692H101.854L105.253 13.2308ZM108.493 24.7692L107.545 17.9231L106.596 24.7692H108.493Z" fill="#111111"/>
<path d="M115.843 16.1538H113.156V13.2308H122.56V16.0769H119.873V30.7692H115.843V16.1538Z" fill="#111111"/>
<path d="M129.752 13.2308H136.707V15.0769H132.202V20.8462H135.837V22.6154H132.202V29.0769H136.707V30.8462H129.673V13.2308H129.752Z" fill="#111111"/>
<path d="M138.761 13.2308H140.5L145.637 24.8462V13.2308H147.692V30.7692H146.111L140.895 18.7692V30.7692H138.761V13.2308Z" fill="#111111"/>
<path d="M150.063 13.2308H157.017V15.0769H152.513V20.8462H156.148V22.6154H152.513V29.0769H157.017V30.8462H150.063V13.2308Z" fill="#111111"/>
<path d="M159.072 13.2308H162.707C164.137 13.1346 165.559 13.5144 166.738 14.3077C167.607 15 168.002 16.2308 168.002 17.8462C168.002 20.0769 167.291 21.4615 165.79 21.9231L168.318 30.6923H165.869L163.498 22.4615H161.522V30.6923H158.993V13.2308H159.072ZM162.549 20.7692C163.364 20.8346 164.176 20.6165 164.841 20.1538C165.315 19.7692 165.552 19 165.552 17.8462C165.574 17.273 165.494 16.7004 165.315 16.1538C165.137 15.7617 164.832 15.4373 164.446 15.2308C163.902 14.9893 163.304 14.8836 162.707 14.9231H161.601V20.6923H162.549V20.7692Z" fill="#111111"/>
<path d="M171.164 29.4615C170.342 28.1166 169.956 26.5617 170.057 25V19.1538C170.038 18.0391 170.171 16.9268 170.452 15.8462C170.717 15.0386 171.244 14.3367 171.954 13.8462C172.836 13.3377 173.854 13.0967 174.878 13.1538C176.538 13.1538 177.723 13.5385 178.434 14.3846C179.252 15.5019 179.644 16.8624 179.541 18.2308V18.8462H177.17V18.3077C177.173 17.6635 177.12 17.0201 177.012 16.3846C176.945 15.983 176.718 15.6235 176.379 15.3846C175.935 15.1008 175.408 14.9658 174.878 15C174.311 14.9647 173.75 15.1284 173.297 15.4615C173.111 15.614 172.959 15.8018 172.851 16.0134C172.742 16.2251 172.679 16.4561 172.665 16.6923C172.561 17.38 172.508 18.0741 172.507 18.7692V25.3077C172.449 26.3038 172.61 27.3006 172.981 28.2308C173.297 28.8462 173.93 29.0769 174.878 29.0769C175.252 29.1223 175.632 29.0589 175.97 28.8947C176.307 28.7304 176.587 28.4727 176.775 28.1538C177.192 27.1811 177.381 26.1299 177.328 25.0769V23.8462H175.036V22.0769H179.62V30.7692H178.039L177.802 28.7692C177.595 29.4395 177.163 30.0231 176.576 30.4273C175.989 30.8315 175.28 31.0331 174.562 31C173.909 31.0374 173.256 30.9164 172.663 30.6479C172.07 30.3794 171.555 29.9717 171.164 29.4615Z" fill="#111111"/>
<path d="M184.678 24.6154L180.805 13.3077H183.176L185.942 21.7692L188.629 13.3077H191L187.128 24.6154V30.7692H184.757V24.6154H184.678Z" fill="#111111"/>
</g>
<defs>
<clipPath id="clip0">
<rect width="33.32" height="37.61" fill="white"/>
</clipPath>
<clipPath id="clip1">
<rect width="101" height="18" fill="white" transform="translate(90 13)"/>
</clipPath>
</defs>
  </symbol>
  <symbol viewBox="0 0 172.3 57.1" id="logo-tablet">
      <style type="text/css">
      .st0 {
        fill: #FDC305;
      }
      .st1 {
        fill: #F06351;
      }
      .st2 {
        fill: #E55645;
      }
      .st3 {
        fill: #111111;
      }
      .st4 {
        fill: #444444;
      }
    </style>
    <path
      class="st0"
      d="M59.6,21.7C54.2,8.7,39.3,2.6,26.3,8S7.1,28.4,12.6,41.4c3.6,8.5,11.3,14.1,19.8,15.4c-0.6-2.1-1.2-4.4-1.7-6.8
    c1.5,1,3.1,1.8,4.7,2.5c0,0,0,0,0,0c0,0,0.1,2.1,0.3,4.5c1.8,0,3.5-0.1,5.3-0.5c0-0.2,0-0.4,0-0.8c0.3-1.9,1.1-5.2,1.2-7.4
    c1.1-1.1,2.1-2.3,2.9-3.7c0,0,0,0,0,0c0,0.1,0,0.3-0.1,0.4c-0.6,4.2-1.7,8.8-2.4,10c-0.2,0.4-0.5,0.9-0.8,1.1
    c1.4-0.3,2.7-0.8,4.1-1.3C58.9,49.7,65.1,34.7,59.6,21.7z M58.2,25.5c-0.4,0.4-1.3,0.7-1.5-0.6c-0.1-1.3-0.2-2.2-0.2-2.2
    s-1.9-3.4-2.6-3.5c-0.7,0-5.8,3.5-7.1,4.9c-1.2,1.3-1.4,1.2-1.4,3.5c0,1.7,0.2,8.1,0.1,13.1v0v0c0,0-2.2,0.6-8.1,2.2
    c-5.9,1.6-7.8,1.8-7.8,1.8l-1-5.8c0,0,0,0,0,0c0,0,0,0,0,0c0,0,0,0,0,0c0,0,0,0,0,0c0,0,0,0,0,0c0,0,0,0,0,0l-2.6-13.1
    c0,0-3.8-1.4-5.2-1.8c-1.4-0.4-2.3-0.7-4,0.6c-1.8,1.3-1.7,3.8-1.7,3.8s0.4,1,0.5,1.4c0,0.5-1.2,0.4-2,0.4s-0.9-1.4-0.3-3.1
    c0.6-1.7,1.9-3.7,1.9-3.7s1.2-2.3,2.1-2.9c0,0,0.1-0.3,1.2-0.2c1.1,0.1,7.2,0.4,7.2,0.4l0.1-2.3c6.7-0.9,13.4-1.4,20.2-1.3
    c0,0.6,0,1.2-0.1,1.8c0,0,4.4-2,8.1-2c0,0,0.4,0,0.8,0.4c0.3,0.4,2.4,3,2.6,3.4c0.2,0.4,1.2,1.7,1.8,3C59,23.7,58.6,25.1,58.2,25.5z
    "/>
    <path
      class="st1"
      d="M56.2,19.4c0.5,0.6,0.9,1.1,1,1.3c0.2,0.4,1.2,1.7,1.8,3c0,0-0.4,1.3-0.9,1.8c-0.4,0.4-1.3,0.7-1.5-0.6
    c-0.1-1.3-0.2-2.2-0.2-2.2s-1.9-3.4-2.6-3.5c-0.7,0-5.8,3.5-7.1,4.9c-1.2,1.3-1.4,1.2-1.4,3.5c0,1.5,0.2,6.6,0.1,11.2
    c1.8,0.2,4.4,0.7,5.2,1.9c0,0-0.3-7.1,7.8-3.4c0,0,0.3-9.7,11.4-7.2C69.9,30.1,64.2,23.1,56.2,19.4z"/>
    <path class="st1" d="M45.7,17.1c0.1-8.5-1.4-16.5-1.4-16.5s-0.1-1.3-0.9-0.2c-0.7,1.1-1.2,3.9-1.2,3.9c-7.4-0.4-12.8,0.3-12.8,0.3
    c-0.8-2.7-2.2-3.9-2.9-3.6c-0.7,0.3-0.7,3.3-0.7,3.3l-0.3,14.1C32.2,17.5,39,17.1,45.7,17.1z"/>
    <path class="st2" d="M45.2,44.8c0.1-1.1,0.2-2.5,0.2-4c0,0-2.2,0.6-8.1,2.2c-5.9,1.6-7.8,1.8-7.8,1.8l1.1,5c0,0.1,0,0.2,0.1,0.3
    c1.5,1,3.1,1.8,4.7,2.5c4.4-2.2,6.8-4.1,6.8-4.1c0,0,0,0,0,0.1C43.4,47.4,44.4,46.1,45.2,44.8z"/>
    <path d="M31.9,14c0-0.1,1,0.7,1.4,0.9s0.6,0.4,0.6,0.6s-0.3,0.3-0.6,0.3s-0.9-0.1-1-0.3c0,0,0.6,0,0.9,0h0.3
    C33.5,15.6,32.1,14.5,31.9,14z"/>
    <path d="M39.3,14.1c0,0-1,1.3-1.1,1.3s-0.2,0.3,0.2,0.3s1.1-0.2,1.2-0.3s0.1-0.2-0.1-0.2c-0.2,0-0.7,0-1,0.1L39.3,14.1
    C39.4,14.1,39.4,14,39.3,14.1z"/>
    <path d="M36.2,20.2c0,0,0.8-0.4,1.1-1s0-0.9-0.4-1c-0.5-0.1-1.3,0-1.7,0.3c-0.4,0.4-0.3,0.7-0.1,1C35.3,19.7,35.9,20.1,36.2,20.2z"/>
    <path class="st1" d="M35.8,21.4c0,0-0.2,0.4-0.5,0.6c-0.2,0.2-0.6,0.4-1,0.4c-0.6,0-1.1-0.2-1.5-0.4c-0.2-0.1-0.4-0.3-0.5-0.4
    c-0.2-0.2-0.4-0.3-0.4-0.3s0.7,4.1,2.6,4.7c1.8,0.6,2.1-0.7,2.2-1.1c0-0.3,0-2.1-0.8-3.2C35.9,21.4,35.9,21.6,35.8,21.4z"/>
    <g>
      <path
        d="M34.2,22.6C34.1,22.6,34.1,22.6,34.2,22.6c-1.3,0-2.3-1.4-2.3-1.4c0-0.1,0-0.2,0-0.2c0.1,0,0.2,0,0.2,0c0,0,1,1.3,2.1,1.3
      c0,0,0,0,0,0c0.6,0,1.1-0.3,1.6-1l0.1-0.2l0.1,0.2c0,0,0.4,0.8,1,0.8c0.5,0,1.1-0.4,1.6-1.3c0-0.1,0.1-0.1,0.2,0
      c0.1,0,0.1,0.1,0,0.2c-0.6,1-1.3,1.4-1.9,1.4c-0.6,0-0.9-0.5-1.1-0.8C35.4,22.3,34.8,22.6,34.2,22.6z"/>
    </g>
    <path class="st3" d="M41.1,29.2l-3.1,1.3l1.1-5.6l-7.5,9.7l3.1-1.3l-1.1,5.6L41.1,29.2z M33.7,33l4.1-5.4l-0.8,4l2-0.8l-4.1,5.4
    l0.8-4L33.7,33z"/>
    <path
      class="st1"
      d="M45.7,18.9c0,0-2.5,2.2-5.1,5.2c-2.5,2.9-5.3,4.9-5.3,4.9c-0.2-0.5-1.6-1.5-1.6-1.5s-3.1-2.1-5.2-3.8
    c-1.2-1-2.3-2.2-3.1-3c-0.3,0-1.1-0.1-2-0.1c4.7,7,12,8.8,12,8.8c0.9-0.1,3.3-1.9,5.1-3.3s4.8-4.5,5.9-5.9c0.6-0.7,0.9-1.4,1.1-2
    C46.4,18.6,45.7,18.9,45.7,18.9z"/>
    <path
      class="st1"
      d="M25.8,25.7c0,0-3.8-1.4-5.2-1.8c-1.4-0.4-2.3-0.7-4,0.6c-1.8,1.3-1.7,3.8-1.7,3.8s0.4,1,0.5,1.4
    c0,0.5-1.2,0.4-2,0.4s-0.9-1.4-0.3-3.1c0.6-1.7,1.9-3.7,1.9-3.7c-5.4,2.8-15,9.4-15,9.4s2.9-0.3,8.2,0.2c5.2,0.5,4.9,4.7,4.9,4.7
    s3.5-1,5.6-1.1c2.1-0.1,2.3,2.1,2.3,2.1l0.5,3.8c0,0,0.5-0.6,2.6-2.4c1.9-1.5,3.9-1.4,4.4-1.3c0,0,0,0,0,0L25.8,25.7z"/>
    <g>
      <path
        class="st3"
        d="M89.6,37.1c-0.7-0.9-1-2.1-1-3.7v-5.3c0-1.6,0.3-2.9,1-3.7c0.7-0.8,1.8-1.3,3.4-1.3c1.5,0,2.6,0.4,3.2,1.1
      c0.6,0.7,0.9,1.8,0.9,3.2v1.3h-2.9v-1.4c0-0.4,0-0.8-0.1-1.1c0-0.3-0.2-0.5-0.3-0.7c-0.2-0.2-0.5-0.3-0.8-0.3
      c-0.6,0-0.9,0.2-1.1,0.5c-0.2,0.4-0.2,0.9-0.2,1.6v6.8c0,0.7,0.1,1.2,0.3,1.6c0.2,0.3,0.5,0.5,1,0.5c0.5,0,0.8-0.2,1-0.5
      c0.1-0.3,0.2-0.9,0.2-1.6v-1.5h2.9v1.2c0,1.4-0.3,2.5-0.9,3.3c-0.6,0.8-1.7,1.2-3.2,1.2C91.3,38.4,90.2,38,89.6,37.1z"/>
      <path class="st3" d="M101.1,23.3h3.4l2.9,14.9h-2.8l-0.6-3.3h-2.4l-0.6,3.3h-2.9L101.1,23.3z M103.7,33l-0.9-6l-0.9,6H103.7z"/>
      <path class="st3" d="M109.5,25.5h-2.3v-2.2h7.6v2.2h-2.3v12.7h-3.1V25.5z"/>
      <path class="st4" d="M120.8,23.3h5.8v1.5h-3.7v4.9h3v1.5h-3v5.5h3.7v1.5h-5.8V23.3z"/>
      <path class="st4" d="M128.3,23.3h1.4l4.2,9.9v-9.9h1.7v14.9h-1.3L130.1,28v10.2h-1.8V23.3z"/>
      <path class="st4" d="M138,23.3h5.8v1.5h-3.7v4.9h3v1.5h-3v5.5h3.7v1.5H138V23.3z"/>
      <path
        class="st4"
        d="M145.5,23.3h3c1.5,0,2.6,0.3,3.3,0.9c0.7,0.6,1.1,1.6,1.1,3c0,1.9-0.6,3.1-1.8,3.5l2.1,7.5h-2l-2-7h-1.6v7
      h-2.1V23.3z M148.4,29.7c0.9,0,1.5-0.2,1.9-0.5c0.4-0.4,0.6-1,0.6-1.9c0-0.6-0.1-1.1-0.2-1.4c-0.1-0.3-0.4-0.6-0.7-0.8
      c-0.3-0.2-0.8-0.2-1.5-0.2h-0.9v4.9H148.4z"/>
      <path
        class="st4"
        d="M155.7,37.1c-0.6-0.9-0.9-2.1-0.9-3.8v-5c0-1.2,0.1-2.1,0.4-2.8c0.2-0.7,0.7-1.3,1.2-1.7
      c0.6-0.4,1.4-0.6,2.4-0.6c1.4,0,2.4,0.3,3,1c0.6,0.7,0.9,1.8,0.9,3.3v0.6h-2v-0.5c0-0.7,0-1.3-0.1-1.6c-0.1-0.4-0.3-0.7-0.5-0.9
      c-0.3-0.2-0.7-0.3-1.2-0.3c-0.6,0-1,0.1-1.3,0.4c-0.3,0.3-0.5,0.6-0.5,1.1c-0.1,0.4-0.1,1-0.1,1.8v5.5c0,1.1,0.1,2,0.4,2.5
      c0.3,0.5,0.8,0.7,1.6,0.7c0.8,0,1.3-0.3,1.6-0.8c0.3-0.5,0.4-1.4,0.4-2.6v-1H159v-1.5h3.8v7.4h-1.3l-0.2-1.7
      c-0.5,1.3-1.4,1.9-2.7,1.9C157.3,38.4,156.3,38,155.7,37.1z"/>
      <path class="st4" d="M167.1,32.9l-3.2-9.6h1.9l2.3,7.2l2.2-7.2h2l-3.2,9.6v5.3h-2V32.9z"/>
    </g>
  </symbol>
</svg>
